<?xml version="1.0" encoding="UTF-8"?>
<svg version="1.1" xmlns="http://www.w3.org/2000/svg" width="500" height="174">
<path d="M0 0 C165 0 330 0 500 0 C500 57.42 500 114.84 500 174 C335 174 170 174 0 174 C0 116.58 0 59.16 0 0 Z " fill="#FEF7F7" transform="translate(0,0)"/>
<path d="M0 0 C0.88888916 -0.00628418 1.77777832 -0.01256836 2.69360352 -0.01904297 C9.07530064 0.10669874 9.07530064 0.10669874 11.29541016 1.89892578 C12.87211702 3.89122706 13.12051655 5.37637863 13.5 7.875 C14.3321315 12.04242278 15.39722523 14.51057383 18.5625 17.5 C23.0196596 20.43767337 27.29762408 21.53329341 32.5625 20.5 C37.24252097 18.61627063 39.97370362 16.55983349 42.4375 12.125 C43.21240489 9.62808423 43.93823658 7.14485375 44.625 4.625 C45.0890625 3.078125 45.0890625 3.078125 45.5625 1.5 C48.87945548 -0.15847774 52.54453371 0.27331498 56.1875 0.25 C56.96996094 0.229375 57.75242187 0.20875 58.55859375 0.1875 C66.53263786 0.13460419 73.30928385 2.35846672 79.5625 7.5 C84.5625 14.13588391 84.5625 14.13588391 84.5625 17.5 C81.18240483 17.79027535 77.93313357 17.94196301 74.5625 17.5 C72.25 15.125 72.25 15.125 70.5625 12.5 C66.67639429 10.49426802 63.07936077 10.1373855 58.75 9.875 C57.58855469 9.80023438 56.42710938 9.72546875 55.23046875 9.6484375 C54.35003906 9.59945313 53.46960938 9.55046875 52.5625 9.5 C52.43101563 10.428125 52.29953125 11.35625 52.1640625 12.3125 C51.02511894 18.34742174 47.18184347 22.40244153 42.546875 26.17578125 C37.70892808 29.4042537 31.64175131 31.24187932 25.80078125 30.97265625 C17.95679186 29.31624662 10.96177364 25.26055138 6.54296875 18.53515625 C5.065215 15.46778691 4.70381442 12.89154619 4.5625 9.5 C-6.32286067 9.39967604 -6.32286067 9.39967604 -15.4375 14.5 C-19.07397284 19.10492872 -19.94354987 22.13630574 -19.98339844 27.97412109 C-19.99373611 28.69676147 -20.00407379 29.41940186 -20.01472473 30.16394043 C-20.04403935 32.5340033 -20.04564941 34.90320798 -20.046875 37.2734375 C-20.06186441 38.92397682 -20.07859316 40.57450119 -20.09698486 42.2250061 C-20.14058555 46.55520332 -20.16064118 50.88519823 -20.17572021 55.21557617 C-20.19531768 59.63993252 -20.23728468 64.06407122 -20.27734375 68.48828125 C-20.35256692 77.1587971 -20.40290597 85.82922729 -20.4375 94.5 C-19.78152832 94.48952637 -19.12555664 94.47905273 -18.44970703 94.46826172 C-15.48734342 94.42677497 -12.52504084 94.40069738 -9.5625 94.375 C-8.52996094 94.35824219 -7.49742188 94.34148437 -6.43359375 94.32421875 C-5.44746094 94.31777344 -4.46132813 94.31132813 -3.4453125 94.3046875 C-2.07850342 94.28897705 -2.07850342 94.28897705 -0.68408203 94.27294922 C1.5625 94.5 1.5625 94.5 3.5625 96.5 C3.875 99 3.875 99 3.5625 101.5 C0.30860012 103.66926659 -0.57145957 103.74080049 -4.32421875 103.6953125 C-5.26201172 103.68886719 -6.19980469 103.68242188 -7.16601562 103.67578125 C-8.63071289 103.65064453 -8.63071289 103.65064453 -10.125 103.625 C-11.60709961 103.61146484 -11.60709961 103.61146484 -13.11914062 103.59765625 C-15.55883765 103.5740843 -17.99804697 103.54118022 -20.4375 103.5 C-20.41465217 107.39712295 -20.3372778 111.29132936 -20.25 115.1875 C-20.24419922 116.29029297 -20.23839844 117.39308594 -20.23242188 118.52929688 C-20.10183333 123.33205347 -20.0069571 126.56898284 -17.46875 130.71875 C-13.31576895 133.15916154 -9.86754496 133.27881184 -5.125 133.3125 C-4.28904297 133.33763672 -3.45308594 133.36277344 -2.59179688 133.38867188 C-0.54086591 133.4472699 1.51086593 133.47656493 3.5625 133.5 C3.73265625 132.90832031 3.9028125 132.31664062 4.078125 131.70703125 C6.48254416 123.86709006 9.58821044 119.82006934 16.5625 115.515625 C22.41358801 112.54436937 29.17394591 112.84764765 35.5625 113.5 C41.74491409 115.539465 47.36410103 119.76385497 50.5625 125.5 C51.35525088 128.15086122 51.95995098 130.79553581 52.5625 133.5 C55.66701549 133.36105852 58.77100835 133.212657 61.875 133.0625 C62.75607422 133.02318359 63.63714844 132.98386719 64.54492188 132.94335938 C65.81625977 132.88051758 65.81625977 132.88051758 67.11328125 132.81640625 C67.89356689 132.77974854 68.67385254 132.74309082 69.4777832 132.70532227 C71.75579101 132.55874737 71.75579101 132.55874737 74.5625 131.5 C75.79219878 127.98809191 75.79219878 127.98809191 76.5625 124.5 C79.5325 124.5 82.5025 124.5 85.5625 124.5 C85.07147066 130.6378668 83.71655435 134.67570845 79.04467773 138.85913086 C72.73763492 143.39400337 66.73746645 143.15070503 59.1875 142.9375 C58.00027344 142.93169922 56.81304687 142.92589844 55.58984375 142.91992188 C46.85796523 142.79546523 46.85796523 142.79546523 44.5625 140.5 C44.03515625 138.51171875 44.03515625 138.51171875 43.625 136.1875 C42.43974913 130.58449587 41.13307306 127.63943536 36.375 124.1875 C32.42018034 122.14764565 28.93395574 121.65668767 24.5625 122.5 C19.23462339 124.42756512 16.15070072 127.41945785 13.5625 132.5 C12.94321368 134.8745883 12.45217333 137.2231125 12.0546875 139.64453125 C11.89226563 140.25683594 11.72984375 140.86914062 11.5625 141.5 C7.37765196 143.59242402 1.91039099 142.72935851 -2.6875 142.75 C-3.82058594 142.770625 -4.95367187 142.79125 -6.12109375 142.8125 C-13.02486683 142.84487408 -18.01041391 142.66125341 -23.30078125 137.78125 C-23.77902344 137.1934375 -24.25726563 136.605625 -24.75 136 C-25.24113281 135.4121875 -25.73226563 134.824375 -26.23828125 134.21875 C-28.34657354 131.19709329 -28.56479014 128.53895996 -28.57794189 124.97235107 C-28.58365204 124.0443721 -28.58936218 123.11639313 -28.59524536 122.16029358 C-28.59636322 121.14414474 -28.59748108 120.12799591 -28.59863281 119.08105469 C-28.60359772 118.00921432 -28.60856262 116.93737396 -28.61367798 115.83305359 C-28.62830912 112.27932091 -28.63510356 108.72563288 -28.640625 105.171875 C-28.6463761 102.70428465 -28.65213384 100.23669432 -28.65789795 97.769104 C-28.66841094 92.59069612 -28.67425152 87.41230378 -28.67773438 82.23388672 C-28.6832167 75.60159839 -28.70723811 68.96951561 -28.73570633 62.33729172 C-28.75434035 57.23803103 -28.75953875 52.13881975 -28.76107025 47.03952789 C-28.76409606 44.59472786 -28.77212215 42.14992868 -28.78525543 39.70516205 C-28.80232979 36.28212407 -28.80043187 32.85958685 -28.79394531 29.43652344 C-28.8031601 28.42847153 -28.81237488 27.42041962 -28.8218689 26.38182068 C-28.77664199 18.75413487 -27.41460202 12.74340684 -22.03125 6.921875 C-15.32113607 0.93540081 -8.72423022 0.04822165 0 0 Z " fill="#ED1F27" transform="translate(40.4375,13.5)"/>
<path d="M0 0 C0.77392593 -0.00570007 1.54785187 -0.01140015 2.3452301 -0.01727295 C3.99210233 -0.02674492 5.63899369 -0.03326561 7.28588867 -0.03710938 C9.77492992 -0.04671494 12.26310951 -0.07767314 14.75195312 -0.109375 C27.94497636 -0.19742651 37.82360197 1.07880177 47.94140625 10.328125 C57.09330284 19.72353103 57.37890625 29.30681036 57.37890625 42.203125 C42.19890625 42.203125 27.01890625 42.203125 11.37890625 42.203125 C17.626544 48.49067287 17.626544 48.49067287 25.80859375 49.51171875 C26.85144531 49.53685547 27.89429688 49.56199219 28.96875 49.58789062 C31.15098426 49.62292054 33.33328213 49.65419799 35.515625 49.68164062 C42.23840803 49.85157534 46.94113845 50.34539209 52.27734375 54.78125 C52.76460937 55.33296875 53.251875 55.8846875 53.75390625 56.453125 C54.25664062 56.99453125 54.759375 57.5359375 55.27734375 58.09375 C56.85534551 61.11545551 56.44756372 63.84426502 56.37890625 67.203125 C51.1869352 67.32804287 45.99586553 67.41807557 40.80273438 67.4777832 C39.04151139 67.5027092 37.28038945 67.53666326 35.51953125 67.58032227 C22.35367803 67.8982477 11.69533302 67.29387378 1.44140625 58.015625 C-6.40821034 49.48219426 -8.78339037 41.02303792 -8.75390625 29.65625 C-8.75486298 28.84444275 -8.7558197 28.0326355 -8.75680542 27.19622803 C-8.7574836 25.48840253 -8.75565463 23.7805744 -8.75146484 22.07275391 C-8.74608362 19.44818416 -8.75143625 16.82378339 -8.7578125 14.19921875 C-8.7571522 12.53906212 -8.75587203 10.8789056 -8.75390625 9.21875 C-8.75593048 8.43026672 -8.75795471 7.64178345 -8.76004028 6.82940674 C-8.72706464 -0.75035511 -6.90249987 0.0390649 0 0 Z " fill="#ED2129" transform="translate(96.62109375,51.796875)"/>
<path d="M0 0 C5.61 0 11.22 0 17 0 C17.33 1.65 17.66 3.3 18 5 C18.49886719 4.6390625 18.99773437 4.278125 19.51171875 3.90625 C26.1838271 -0.40606419 32.16607865 -1.1043868 40 0 C45.14473257 2.30625943 46.88907244 4.87523522 49 10 C49.34057617 13.61865234 49.34057617 13.61865234 49.29296875 17.5859375 C49.28872391 18.28772125 49.28447906 18.989505 49.28010559 19.71255493 C49.26343599 21.9337756 49.22580872 24.15405788 49.1875 26.375 C49.17243788 27.88930973 49.15875216 29.40363381 49.14648438 30.91796875 C49.11613398 34.61262341 49.05739795 38.30527292 49 42 C43.39 42 37.78 42 32 42 C31.94392578 38.89464844 31.94392578 38.89464844 31.88671875 35.7265625 C31.83805162 33.7242579 31.78928171 31.72195429 31.73754883 29.71972656 C31.70427127 28.32693911 31.67624803 26.93401589 31.65356445 25.54101562 C31.62007311 23.54008622 31.56618695 21.53953079 31.51171875 19.5390625 C31.48553467 18.33459473 31.45935059 17.13012695 31.43237305 15.88916016 C31.28968994 14.9357373 31.14700684 13.98231445 31 13 C28.11400612 10.64381458 28.11400612 10.64381458 24.5 11.1875 C20.49542369 12.08390214 20.49542369 12.08390214 18 15 C17.49335383 17.90087655 17.49335383 17.90087655 17.48828125 21.19921875 C17.45283203 22.40771484 17.41738281 23.61621094 17.38085938 24.86132812 C17.35830078 26.12396484 17.33574219 27.38660156 17.3125 28.6875 C17.27833984 29.96173828 17.24417969 31.23597656 17.20898438 32.54882812 C17.12639805 35.69890643 17.06152609 38.84943999 17 42 C11.39 42 5.78 42 0 42 C0 28.14 0 14.28 0 0 Z " fill="#ED222A" transform="translate(255,77)"/>
<path d="M0 0 C3.64555558 -0.11755481 7.29061474 -0.18769812 10.9375 -0.25 C12.46987305 -0.30027344 12.46987305 -0.30027344 14.03320312 -0.3515625 C21.98050633 -0.45312548 28.15127889 0.76810231 34.33984375 5.96484375 C40.24945103 13.26154711 41 15.9458154 41 26 C31.43 26 21.86 26 12 26 C16.1347773 30.1347773 16.669436 30.40577302 22.1015625 30.51171875 C23.60937521 30.50394652 25.11718771 30.49613444 26.625 30.48828125 C31.87122974 30.59023978 34.80921925 31.5483907 39 35 C40.78229676 37.67344514 41 38.73770359 41 42 C37.00025019 42.11710979 33.00094719 42.18755489 29 42.25 C27.87464844 42.28351563 26.74929687 42.31703125 25.58984375 42.3515625 C17.61756133 42.44480557 12.08437555 41.52454801 5.9765625 36.25390625 C5.53054687 35.69574219 5.08453125 35.13757813 4.625 34.5625 C4.16351563 34.00691406 3.70203125 33.45132813 3.2265625 32.87890625 C0.42514878 28.58756867 -0.24540454 24.9085605 -0.1953125 19.82421875 C-0.18886719 18.66728516 -0.18242187 17.51035156 -0.17578125 16.31835938 C-0.15902344 15.12017578 -0.14226562 13.92199219 -0.125 12.6875 C-0.11597656 11.46998047 -0.10695312 10.25246094 -0.09765625 8.99804688 C-0.07413037 5.99849726 -0.04125653 2.99934956 0 0 Z " fill="#ED232B" transform="translate(208,77)"/>
<path d="M0 0 C6.27 0 12.54 0 19 0 C19.63228516 2.79791016 19.63228516 2.79791016 20.27734375 5.65234375 C20.83053799 8.08077272 21.38393379 10.50915579 21.9375 12.9375 C22.35418945 14.78504883 22.35418945 14.78504883 22.77929688 16.66992188 C23.04677734 17.83974609 23.31425781 19.00957031 23.58984375 20.21484375 C23.83597412 21.29886475 24.08210449 22.38288574 24.33569336 23.49975586 C24.75564551 25.92291882 24.75564551 25.92291882 26 27 C26.14099121 26.43079834 26.28198242 25.86159668 26.42724609 25.27514648 C27.07522224 22.66227954 27.72509763 20.04988846 28.375 17.4375 C28.59671875 16.54224609 28.8184375 15.64699219 29.046875 14.72460938 C30.27666475 9.78736523 31.56682169 4.88218218 33 0 C37.62 0 42.24 0 47 0 C45.6162848 6.80326639 43.7442424 13.35407687 41.64453125 19.96923828 C40.89486994 22.33123933 40.15050354 24.69488331 39.40625 27.05859375 C37.94228143 31.70726138 36.47084088 36.35347996 35 41 C27.74 41 20.48 41 13 41 C8.71 27.47 4.42 13.94 0 0 Z " fill="#ED1E26" transform="translate(157,78)"/>
<path d="M0 0 C0.81275391 0.00193359 1.62550781 0.00386719 2.46289062 0.00585938 C3.72456055 0.02422852 3.72456055 0.02422852 5.01171875 0.04296875 C5.84123047 0.04361328 6.67074219 0.04425781 7.52539062 0.04492188 C12.34714663 0.07917271 16.94460777 0.42840887 21.69921875 1.23046875 C21.69921875 5.19046875 21.69921875 9.15046875 21.69921875 13.23046875 C20.04921875 12.73546875 18.39921875 12.24046875 16.69921875 11.73046875 C11.82031386 10.38608745 7.73389829 9.94548689 2.69921875 10.23046875 C2.69921875 11.22046875 2.69921875 12.21046875 2.69921875 13.23046875 C3.71242188 13.51019531 4.725625 13.78992188 5.76953125 14.078125 C19.27077876 18.02544528 19.27077876 18.02544528 22.8671875 23.27734375 C24.47185004 27.04415724 24.74760817 30.26755675 23.69921875 34.23046875 C21.50632609 38.16126614 19.15349048 40.59329875 15.015625 42.40625 C11.01067059 43.40159203 7.36909981 43.52404839 3.26171875 43.48046875 C2.53662109 43.48820312 1.81152344 43.4959375 1.06445312 43.50390625 C-3.74884164 43.4866078 -7.73207366 42.7473519 -12.30078125 41.23046875 C-12.30078125 37.27046875 -12.30078125 33.31046875 -12.30078125 29.23046875 C-11.22828125 29.56046875 -10.15578125 29.89046875 -9.05078125 30.23046875 C-3.50917203 31.64577183 2.02024004 31.40083811 7.69921875 31.23046875 C7.69921875 30.24046875 7.69921875 29.25046875 7.69921875 28.23046875 C6.98636719 28.0603125 6.27351563 27.89015625 5.5390625 27.71484375 C-7.47380003 24.42222174 -7.47380003 24.42222174 -12.23828125 19.04296875 C-13.75129934 15.03792087 -14.12789352 11.45027302 -13.30078125 7.23046875 C-9.71300883 2.54643253 -5.92965257 -0.03335307 0 0 Z " fill="#ED2128" transform="translate(448.30078125,76.76953125)"/>
<path d="M0 0 C1.134375 0.020625 2.26875 0.04125 3.4375 0.0625 C3.4375 4.0225 3.4375 7.9825 3.4375 12.0625 C7.3975 12.0625 11.3575 12.0625 15.4375 12.0625 C15.1075 15.3625 14.7775 18.6625 14.4375 22.0625 C10.8075 22.0625 7.1775 22.0625 3.4375 22.0625 C3.57764682 25.3753323 3.72433615 28.68764408 3.875 32 C3.91431641 32.94552734 3.95363281 33.89105469 3.99414062 34.86523438 C4.03603516 35.76435547 4.07792969 36.66347656 4.12109375 37.58984375 C4.15775146 38.42249756 4.19440918 39.25515137 4.23217773 40.11303711 C4.23117103 42.06588858 4.23117103 42.06588858 5.4375 43.0625 C8.01772142 43.34471172 10.59780185 43.51070197 13.1875 43.68359375 C14.30125 43.87115234 14.30125 43.87115234 15.4375 44.0625 C17.04475635 47.27701269 16.49498185 50.49862536 16.4375 54.0625 C12.66504058 55.24019672 8.99659891 55.30040132 5.0625 55.375 C3.77601563 55.41238281 2.48953125 55.44976562 1.1640625 55.48828125 C-3.81696707 54.9191699 -6.47518837 52.70253057 -10.3125 49.6875 C-14.36838685 44.4148471 -13.80415472 37.97788158 -13.6875 31.6875 C-13.67847656 30.76066406 -13.66945313 29.83382812 -13.66015625 28.87890625 C-13.63672937 26.60649923 -13.60392748 24.3346382 -13.5625 22.0625 C-15.8725 22.0625 -18.1825 22.0625 -20.5625 22.0625 C-20.05801109 17.88965599 -19.01682229 16.07370287 -15.9375 13.25 C-12.3716898 9.87051141 -9.11039326 6.35401129 -5.91015625 2.62890625 C-3.70429104 0.06498756 -3.70429104 0.06498756 0 0 Z " fill="#ED2129" transform="translate(412.5625,64.9375)"/>
<path d="M0 0 C1.134375 0.020625 2.26875 0.04125 3.4375 0.0625 C3.4375 4.0225 3.4375 7.9825 3.4375 12.0625 C7.3975 12.0625 11.3575 12.0625 15.4375 12.0625 C15.1075 15.3625 14.7775 18.6625 14.4375 22.0625 C10.8075 22.0625 7.1775 22.0625 3.4375 22.0625 C3.57764682 25.3753323 3.72433615 28.68764408 3.875 32 C3.91431641 32.94552734 3.95363281 33.89105469 3.99414062 34.86523438 C4.03603516 35.76435547 4.07792969 36.66347656 4.12109375 37.58984375 C4.15775146 38.42249756 4.19440918 39.25515137 4.23217773 40.11303711 C4.23117103 42.06588858 4.23117103 42.06588858 5.4375 43.0625 C8.01772142 43.34471172 10.59780185 43.51070197 13.1875 43.68359375 C14.30125 43.87115234 14.30125 43.87115234 15.4375 44.0625 C17.04475635 47.27701269 16.49498185 50.49862536 16.4375 54.0625 C12.66504058 55.24019672 8.99659891 55.30040132 5.0625 55.375 C3.77601563 55.41238281 2.48953125 55.44976562 1.1640625 55.48828125 C-3.81696707 54.9191699 -6.47518837 52.70253057 -10.3125 49.6875 C-14.36838685 44.4148471 -13.80415472 37.97788158 -13.6875 31.6875 C-13.67847656 30.76066406 -13.66945313 29.83382812 -13.66015625 28.87890625 C-13.63672937 26.60649923 -13.60392748 24.3346382 -13.5625 22.0625 C-15.8725 22.0625 -18.1825 22.0625 -20.5625 22.0625 C-20.05801109 17.88965599 -19.01682229 16.07370287 -15.9375 13.25 C-12.3716898 9.87051141 -9.11039326 6.35401129 -5.91015625 2.62890625 C-3.70429104 0.06498756 -3.70429104 0.06498756 0 0 Z " fill="#ED2129" transform="translate(331.5625,64.9375)"/>
<path d="M0 0 C3.625 -0.1875 3.625 -0.1875 7 0 C7 4.29 7 8.58 7 13 C10.96 13 14.92 13 19 13 C19.125 19.75 19.125 19.75 18 22 C14.37 22 10.74 22 7 22 C7.11355702 25.1258064 7.24030583 28.25009525 7.375 31.375 C7.4059375 32.26445313 7.436875 33.15390625 7.46875 34.0703125 C7.50742187 34.92109375 7.54609375 35.771875 7.5859375 36.6484375 C7.63306885 37.82672119 7.63306885 37.82672119 7.68115234 39.02880859 C7.8399465 41.23002939 7.8399465 41.23002939 10 43 C12.44012949 43.24287489 12.44012949 43.24287489 15.125 43.125 C17.538125 43.063125 17.538125 43.063125 20 43 C20 46.3 20 49.6 20 53 C13.77309271 55.89354428 6.34202467 56.31985551 -0.26171875 54.3125 C-4.29902925 52.21064638 -7.30503868 49.20630072 -9 45 C-9.47901348 41.02767522 -9.37787207 37.11854312 -9.25 33.125 C-9.23195313 32.05507812 -9.21390625 30.98515625 -9.1953125 29.8828125 C-9.14837439 27.25427822 -9.08272933 24.62761087 -9 22 C-11.64 22 -14.28 22 -17 22 C-16.41247505 18.59777716 -15.29405274 16.9005905 -12.91015625 14.43359375 C-12.29076172 13.78326172 -11.67136719 13.13292969 -11.03320312 12.46289062 C-10.38287109 11.79451172 -9.73253906 11.12613281 -9.0625 10.4375 C-7.78073092 9.10461351 -6.50071033 7.77004283 -5.22265625 6.43359375 C-4.36812866 5.55272095 -4.36812866 5.55272095 -3.49633789 4.65405273 C-1.80306422 2.86367561 -1.80306422 2.86367561 0 0 Z " fill="#ED1E26" transform="translate(368,65)"/>
<path d="M0 0 C3.20815845 -0.08774066 6.41600462 -0.14063706 9.625 -0.1875 C10.52863281 -0.21263672 11.43226562 -0.23777344 12.36328125 -0.26367188 C17.66425883 -0.32171178 21.49544782 -0.11801585 26 3 C27.32 4.65 28.64 6.3 30 8 C20.1 8 10.2 8 0 8 C0 5.36 0 2.72 0 0 Z " fill="#FEEFF0" transform="translate(105,69)"/>
<path d="M0 0 C1.57043101 0.01330874 3.14079971 0.03717648 4.7109375 0.0703125 C5.51273438 0.07933594 6.31453125 0.08835937 7.140625 0.09765625 C9.12252273 0.12125027 11.10426731 0.15712185 13.0859375 0.1953125 C15.5609375 4.6503125 15.5609375 4.6503125 18.0859375 9.1953125 C14.46074161 9.24906335 10.8363356 9.28886543 7.2109375 9.3203125 C6.17839844 9.33707031 5.14585938 9.35382813 4.08203125 9.37109375 C3.09589844 9.37753906 2.10976563 9.38398437 1.09375 9.390625 C-0.27305908 9.40633545 -0.27305908 9.40633545 -1.66748047 9.42236328 C-3.9140625 9.1953125 -3.9140625 9.1953125 -5.9140625 7.1953125 C-6.1640625 4.6953125 -6.1640625 4.6953125 -5.9140625 2.1953125 C-3.9140625 0.1953125 -3.9140625 0.1953125 0 0 Z " fill="#ED1F27" transform="translate(58.9140625,107.8046875)"/>
<path d="M0 0 C2.22747326 -0.13563775 4.45734323 -0.23227853 6.6875 -0.3125 C8.54955078 -0.39951172 8.54955078 -0.39951172 10.44921875 -0.48828125 C14 0 14 0 19 5 C12.73 5 6.46 5 0 5 C0 3.35 0 1.7 0 0 Z " fill="#FEEAEC" transform="translate(218,88)"/>
</svg>
